<svg xmlns="http://www.w3.org/2000/svg" viewBox="0 0 22 21"><defs><style>.cls-1{fill:#083a20;}</style></defs><title>wallet</title><g id="Layer_2" data-name="Layer 2"><g id="Layer_1-2" data-name="Layer 1"><path class="cls-1" d="M19,3H12.41l-3-3H3A3,3,0,0,0,0,3V18a3,3,0,0,0,3,3H19a3,3,0,0,0,3-3V6A3,3,0,0,0,19,3Zm1,15a1,1,0,0,1-1,1H3a1,1,0,0,1-1-1V8H20ZM2,6V3A1,1,0,0,1,3,2H8.59l3,3H19a1,1,0,0,1,1,1Z"/><path class="cls-1" d="M17.18,14.74v-1.5H15V10.43H13.34v2.81H11.29L9.67,10.43H7.38v2.81H5.18v1.5h2.2v.5H5.18v1.5h2.2V19H9V16.74h2.37L12.67,19H15V16.74h2.2v-1.5H15v-.5ZM8.89,12.52h0l.41.72H8.93C8.92,13,8.9,12.78,8.89,12.52ZM9,15.24v-.5h1.22l.28.5Zm4.43,1.61h0l-.07-.11h.1Zm-.07-1.61h-.91l-.29-.5h1.18C13.35,14.88,13.35,15.05,13.36,15.24Z"/></g></g></svg>